<svg width="92" height="26" viewBox="0 0 92 26" fill="none" xmlns="http://www.w3.org/2000/svg">
<path d="M40.044 9.402V18H39.024V11.682C39.024 11.598 39.026 11.508 39.03 11.412C39.038 11.316 39.046 11.218 39.054 11.118L36.102 16.494C36.01 16.674 35.87 16.764 35.682 16.764H35.514C35.326 16.764 35.186 16.674 35.094 16.494L32.082 11.094C32.106 11.306 32.118 11.502 32.118 11.682V18H31.098V9.402H31.956C32.06 9.402 32.14 9.412 32.196 9.432C32.252 9.452 32.306 9.508 32.358 9.6L35.328 14.892C35.376 14.988 35.422 15.088 35.466 15.192C35.514 15.296 35.558 15.402 35.598 15.51C35.638 15.402 35.68 15.296 35.724 15.192C35.768 15.084 35.816 14.982 35.868 14.886L38.784 9.6C38.832 9.508 38.884 9.452 38.94 9.432C39 9.412 39.082 9.402 39.186 9.402H40.044ZM42.9108 13.14C43.1028 12.724 43.3388 12.4 43.6188 12.168C43.8988 11.932 44.2408 11.814 44.6448 11.814C44.7728 11.814 44.8948 11.828 45.0108 11.856C45.1308 11.884 45.2368 11.928 45.3288 11.988L45.2508 12.786C45.2268 12.886 45.1668 12.936 45.0708 12.936C45.0148 12.936 44.9328 12.924 44.8248 12.9C44.7168 12.876 44.5948 12.864 44.4588 12.864C44.2668 12.864 44.0948 12.892 43.9428 12.948C43.7948 13.004 43.6608 13.088 43.5408 13.2C43.4248 13.308 43.3188 13.444 43.2228 13.608C43.1308 13.768 43.0468 13.952 42.9708 14.16V18H41.8968V11.922H42.5088C42.6248 11.922 42.7048 11.944 42.7488 11.988C42.7928 12.032 42.8228 12.108 42.8388 12.216L42.9108 13.14ZM54.2104 17.022V18H49.3324V9.402H50.4904V17.022H54.2104ZM57.3728 11.826C57.8168 11.826 58.2168 11.9 58.5728 12.048C58.9288 12.196 59.2328 12.406 59.4848 12.678C59.7368 12.95 59.9288 13.28 60.0608 13.668C60.1968 14.052 60.2648 14.482 60.2648 14.958C60.2648 15.438 60.1968 15.87 60.0608 16.254C59.9288 16.638 59.7368 16.966 59.4848 17.238C59.2328 17.51 58.9288 17.72 58.5728 17.868C58.2168 18.012 57.8168 18.084 57.3728 18.084C56.9248 18.084 56.5208 18.012 56.1608 17.868C55.8048 17.72 55.5008 17.51 55.2488 17.238C54.9968 16.966 54.8028 16.638 54.6668 16.254C54.5348 15.87 54.4688 15.438 54.4688 14.958C54.4688 14.482 54.5348 14.052 54.6668 13.668C54.8028 13.28 54.9968 12.95 55.2488 12.678C55.5008 12.406 55.8048 12.196 56.1608 12.048C56.5208 11.9 56.9248 11.826 57.3728 11.826ZM57.3728 17.25C57.9728 17.25 58.4208 17.05 58.7168 16.65C59.0128 16.246 59.1608 15.684 59.1608 14.964C59.1608 14.24 59.0128 13.676 58.7168 13.272C58.4208 12.868 57.9728 12.666 57.3728 12.666C57.0688 12.666 56.8028 12.718 56.5748 12.822C56.3508 12.926 56.1628 13.076 56.0108 13.272C55.8628 13.468 55.7508 13.71 55.6748 13.998C55.6028 14.282 55.5668 14.604 55.5668 14.964C55.5668 15.684 55.7148 16.246 56.0108 16.65C56.3108 17.05 56.7648 17.25 57.3728 17.25ZM63.7023 15.03C63.9183 15.03 64.1083 15 64.2723 14.94C64.4363 14.88 64.5743 14.796 64.6863 14.688C64.7983 14.58 64.8823 14.452 64.9383 14.304C64.9943 14.152 65.0223 13.986 65.0223 13.806C65.0223 13.434 64.9083 13.138 64.6803 12.918C64.4563 12.698 64.1303 12.588 63.7023 12.588C63.2703 12.588 62.9403 12.698 62.7123 12.918C62.4883 13.138 62.3763 13.434 62.3763 13.806C62.3763 13.986 62.4043 14.152 62.4603 14.304C62.5203 14.452 62.6063 14.58 62.7183 14.688C62.8303 14.796 62.9683 14.88 63.1323 14.94C63.2963 15 63.4863 15.03 63.7023 15.03ZM65.6283 18.33C65.6283 18.182 65.5863 18.062 65.5023 17.97C65.4183 17.878 65.3043 17.806 65.1603 17.754C65.0203 17.702 64.8563 17.666 64.6683 17.646C64.4803 17.622 64.2803 17.604 64.0683 17.592C63.8603 17.58 63.6483 17.568 63.4323 17.556C63.2163 17.544 63.0083 17.524 62.8083 17.496C62.5843 17.6 62.4003 17.732 62.2563 17.892C62.1163 18.048 62.0463 18.232 62.0463 18.444C62.0463 18.58 62.0803 18.706 62.1483 18.822C62.2203 18.942 62.3283 19.044 62.4723 19.128C62.6163 19.216 62.7963 19.284 63.0123 19.332C63.2323 19.384 63.4903 19.41 63.7863 19.41C64.0743 19.41 64.3323 19.384 64.5603 19.332C64.7883 19.28 64.9803 19.206 65.1363 19.11C65.2963 19.014 65.4183 18.9 65.5023 18.768C65.5863 18.636 65.6283 18.49 65.6283 18.33ZM66.7143 12.162V12.558C66.7143 12.69 66.6303 12.774 66.4623 12.81L65.7723 12.9C65.9083 13.164 65.9763 13.456 65.9763 13.776C65.9763 14.072 65.9183 14.342 65.8023 14.586C65.6903 14.826 65.5343 15.032 65.3343 15.204C65.1343 15.376 64.8943 15.508 64.6143 15.6C64.3343 15.692 64.0303 15.738 63.7023 15.738C63.4183 15.738 63.1503 15.704 62.8983 15.636C62.7703 15.716 62.6723 15.802 62.6043 15.894C62.5363 15.982 62.5023 16.072 62.5023 16.164C62.5023 16.308 62.5603 16.418 62.6763 16.494C62.7963 16.566 62.9523 16.618 63.1443 16.65C63.3363 16.682 63.5543 16.702 63.7983 16.71C64.0463 16.718 64.2983 16.732 64.5543 16.752C64.8143 16.768 65.0663 16.798 65.3103 16.842C65.5583 16.886 65.7783 16.958 65.9703 17.058C66.1623 17.158 66.3163 17.296 66.4323 17.472C66.5523 17.648 66.6123 17.876 66.6123 18.156C66.6123 18.416 66.5463 18.668 66.4143 18.912C66.2863 19.156 66.1003 19.372 65.8563 19.56C65.6123 19.752 65.3123 19.904 64.9563 20.016C64.6043 20.132 64.2063 20.19 63.7623 20.19C63.3183 20.19 62.9303 20.146 62.5983 20.058C62.2663 19.97 61.9903 19.852 61.7703 19.704C61.5503 19.556 61.3843 19.384 61.2723 19.188C61.1643 18.996 61.1103 18.794 61.1103 18.582C61.1103 18.282 61.2043 18.028 61.3923 17.82C61.5803 17.612 61.8383 17.446 62.1663 17.322C61.9863 17.242 61.8423 17.136 61.7343 17.004C61.6303 16.868 61.5783 16.686 61.5783 16.458C61.5783 16.37 61.5943 16.28 61.6263 16.188C61.6583 16.092 61.7063 15.998 61.7703 15.906C61.8383 15.81 61.9203 15.72 62.0163 15.636C62.1123 15.552 62.2243 15.478 62.3523 15.414C62.0523 15.246 61.8183 15.024 61.6503 14.748C61.4823 14.468 61.3983 14.144 61.3983 13.776C61.3983 13.48 61.4543 13.212 61.5663 12.972C61.6823 12.728 61.8423 12.522 62.0463 12.354C62.2503 12.182 62.4923 12.05 62.7723 11.958C63.0563 11.866 63.3663 11.82 63.7023 11.82C63.9663 11.82 64.2123 11.85 64.4403 11.91C64.6683 11.966 64.8763 12.05 65.0643 12.162H66.7143ZM69.9132 15.03C70.1292 15.03 70.3192 15 70.4832 14.94C70.6472 14.88 70.7852 14.796 70.8972 14.688C71.0092 14.58 71.0932 14.452 71.1492 14.304C71.2052 14.152 71.2332 13.986 71.2332 13.806C71.2332 13.434 71.1192 13.138 70.8912 12.918C70.6672 12.698 70.3412 12.588 69.9132 12.588C69.4812 12.588 69.1512 12.698 68.9232 12.918C68.6992 13.138 68.5872 13.434 68.5872 13.806C68.5872 13.986 68.6152 14.152 68.6712 14.304C68.7312 14.452 68.8172 14.58 68.9292 14.688C69.0412 14.796 69.1792 14.88 69.3432 14.94C69.5072 15 69.6972 15.03 69.9132 15.03ZM71.8392 18.33C71.8392 18.182 71.7972 18.062 71.7132 17.97C71.6292 17.878 71.5152 17.806 71.3712 17.754C71.2312 17.702 71.0672 17.666 70.8792 17.646C70.6912 17.622 70.4912 17.604 70.2792 17.592C70.0712 17.58 69.8592 17.568 69.6432 17.556C69.4272 17.544 69.2192 17.524 69.0192 17.496C68.7952 17.6 68.6112 17.732 68.4672 17.892C68.3272 18.048 68.2572 18.232 68.2572 18.444C68.2572 18.58 68.2912 18.706 68.3592 18.822C68.4312 18.942 68.5392 19.044 68.6832 19.128C68.8272 19.216 69.0072 19.284 69.2232 19.332C69.4432 19.384 69.7012 19.41 69.9972 19.41C70.2852 19.41 70.5432 19.384 70.7712 19.332C70.9992 19.28 71.1912 19.206 71.3472 19.11C71.5072 19.014 71.6292 18.9 71.7132 18.768C71.7972 18.636 71.8392 18.49 71.8392 18.33ZM72.9252 12.162V12.558C72.9252 12.69 72.8412 12.774 72.6732 12.81L71.9832 12.9C72.1192 13.164 72.1872 13.456 72.1872 13.776C72.1872 14.072 72.1292 14.342 72.0132 14.586C71.9012 14.826 71.7452 15.032 71.5452 15.204C71.3452 15.376 71.1052 15.508 70.8252 15.6C70.5452 15.692 70.2412 15.738 69.9132 15.738C69.6292 15.738 69.3612 15.704 69.1092 15.636C68.9812 15.716 68.8832 15.802 68.8152 15.894C68.7472 15.982 68.7132 16.072 68.7132 16.164C68.7132 16.308 68.7712 16.418 68.8872 16.494C69.0072 16.566 69.1632 16.618 69.3552 16.65C69.5472 16.682 69.7652 16.702 70.0092 16.71C70.2572 16.718 70.5092 16.732 70.7652 16.752C71.0252 16.768 71.2772 16.798 71.5212 16.842C71.7692 16.886 71.9892 16.958 72.1812 17.058C72.3732 17.158 72.5272 17.296 72.6432 17.472C72.7632 17.648 72.8232 17.876 72.8232 18.156C72.8232 18.416 72.7572 18.668 72.6252 18.912C72.4972 19.156 72.3112 19.372 72.0672 19.56C71.8232 19.752 71.5232 19.904 71.1672 20.016C70.8152 20.132 70.4172 20.19 69.9732 20.19C69.5292 20.19 69.1412 20.146 68.8092 20.058C68.4772 19.97 68.2012 19.852 67.9812 19.704C67.7612 19.556 67.5952 19.384 67.4832 19.188C67.3752 18.996 67.3212 18.794 67.3212 18.582C67.3212 18.282 67.4152 18.028 67.6032 17.82C67.7912 17.612 68.0492 17.446 68.3772 17.322C68.1972 17.242 68.0532 17.136 67.9452 17.004C67.8412 16.868 67.7892 16.686 67.7892 16.458C67.7892 16.37 67.8052 16.28 67.8372 16.188C67.8692 16.092 67.9172 15.998 67.9812 15.906C68.0492 15.81 68.1312 15.72 68.2272 15.636C68.3232 15.552 68.4352 15.478 68.5632 15.414C68.2632 15.246 68.0292 15.024 67.8612 14.748C67.6932 14.468 67.6092 14.144 67.6092 13.776C67.6092 13.48 67.6652 13.212 67.7772 12.972C67.8932 12.728 68.0532 12.522 68.2572 12.354C68.4612 12.182 68.7032 12.05 68.9832 11.958C69.2672 11.866 69.5772 11.82 69.9132 11.82C70.1772 11.82 70.4232 11.85 70.6512 11.91C70.8792 11.966 71.0872 12.05 71.2752 12.162H72.9252ZM77.3236 15.264C76.8316 15.28 76.4116 15.32 76.0636 15.384C75.7196 15.444 75.4376 15.524 75.2176 15.624C75.0016 15.724 74.8436 15.842 74.7436 15.978C74.6476 16.114 74.5996 16.266 74.5996 16.434C74.5996 16.594 74.6256 16.732 74.6776 16.848C74.7296 16.964 74.7996 17.06 74.8876 17.136C74.9796 17.208 75.0856 17.262 75.2056 17.298C75.3296 17.33 75.4616 17.346 75.6016 17.346C75.7896 17.346 75.9616 17.328 76.1176 17.292C76.2736 17.252 76.4196 17.196 76.5556 17.124C76.6956 17.052 76.8276 16.966 76.9516 16.866C77.0796 16.766 77.2036 16.652 77.3236 16.524V15.264ZM73.8736 12.78C74.2096 12.456 74.5716 12.214 74.9596 12.054C75.3476 11.894 75.7776 11.814 76.2496 11.814C76.5896 11.814 76.8916 11.87 77.1556 11.982C77.4196 12.094 77.6416 12.25 77.8216 12.45C78.0016 12.65 78.1376 12.892 78.2296 13.176C78.3216 13.46 78.3676 13.772 78.3676 14.112V18H77.8936C77.7896 18 77.7096 17.984 77.6536 17.952C77.5976 17.916 77.5536 17.848 77.5216 17.748L77.4016 17.172C77.2416 17.32 77.0856 17.452 76.9336 17.568C76.7816 17.68 76.6216 17.776 76.4536 17.856C76.2856 17.932 76.1056 17.99 75.9136 18.03C75.7256 18.074 75.5156 18.096 75.2836 18.096C75.0476 18.096 74.8256 18.064 74.6176 18C74.4096 17.932 74.2276 17.832 74.0716 17.7C73.9196 17.568 73.7976 17.402 73.7056 17.202C73.6176 16.998 73.5736 16.758 73.5736 16.482C73.5736 16.242 73.6396 16.012 73.7716 15.792C73.9036 15.568 74.1176 15.37 74.4136 15.198C74.7096 15.026 75.0956 14.886 75.5716 14.778C76.0476 14.666 76.6316 14.602 77.3236 14.586V14.112C77.3236 13.64 77.2216 13.284 77.0176 13.044C76.8136 12.8 76.5156 12.678 76.1236 12.678C75.8596 12.678 75.6376 12.712 75.4576 12.78C75.2816 12.844 75.1276 12.918 74.9956 13.002C74.8676 13.082 74.7556 13.156 74.6596 13.224C74.5676 13.288 74.4756 13.32 74.3836 13.32C74.3116 13.32 74.2496 13.302 74.1976 13.266C74.1456 13.226 74.1016 13.178 74.0656 13.122L73.8736 12.78ZM82.1124 15.03C82.3284 15.03 82.5184 15 82.6824 14.94C82.8464 14.88 82.9844 14.796 83.0964 14.688C83.2084 14.58 83.2924 14.452 83.3484 14.304C83.4044 14.152 83.4324 13.986 83.4324 13.806C83.4324 13.434 83.3184 13.138 83.0904 12.918C82.8664 12.698 82.5404 12.588 82.1124 12.588C81.6804 12.588 81.3504 12.698 81.1224 12.918C80.8984 13.138 80.7864 13.434 80.7864 13.806C80.7864 13.986 80.8144 14.152 80.8704 14.304C80.9304 14.452 81.0164 14.58 81.1284 14.688C81.2404 14.796 81.3784 14.88 81.5424 14.94C81.7064 15 81.8964 15.03 82.1124 15.03ZM84.0384 18.33C84.0384 18.182 83.9964 18.062 83.9124 17.97C83.8284 17.878 83.7144 17.806 83.5704 17.754C83.4304 17.702 83.2664 17.666 83.0784 17.646C82.8904 17.622 82.6904 17.604 82.4784 17.592C82.2704 17.58 82.0584 17.568 81.8424 17.556C81.6264 17.544 81.4184 17.524 81.2184 17.496C80.9944 17.6 80.8104 17.732 80.6664 17.892C80.5264 18.048 80.4564 18.232 80.4564 18.444C80.4564 18.58 80.4904 18.706 80.5584 18.822C80.6304 18.942 80.7384 19.044 80.8824 19.128C81.0264 19.216 81.2064 19.284 81.4224 19.332C81.6424 19.384 81.9004 19.41 82.1964 19.41C82.4844 19.41 82.7424 19.384 82.9704 19.332C83.1984 19.28 83.3904 19.206 83.5464 19.11C83.7064 19.014 83.8284 18.9 83.9124 18.768C83.9964 18.636 84.0384 18.49 84.0384 18.33ZM85.1244 12.162V12.558C85.1244 12.69 85.0404 12.774 84.8724 12.81L84.1824 12.9C84.3184 13.164 84.3864 13.456 84.3864 13.776C84.3864 14.072 84.3284 14.342 84.2124 14.586C84.1004 14.826 83.9444 15.032 83.7444 15.204C83.5444 15.376 83.3044 15.508 83.0244 15.6C82.7444 15.692 82.4404 15.738 82.1124 15.738C81.8284 15.738 81.5604 15.704 81.3084 15.636C81.1804 15.716 81.0824 15.802 81.0144 15.894C80.9464 15.982 80.9124 16.072 80.9124 16.164C80.9124 16.308 80.9704 16.418 81.0864 16.494C81.2064 16.566 81.3624 16.618 81.5544 16.65C81.7464 16.682 81.9644 16.702 82.2084 16.71C82.4564 16.718 82.7084 16.732 82.9644 16.752C83.2244 16.768 83.4764 16.798 83.7204 16.842C83.9684 16.886 84.1884 16.958 84.3804 17.058C84.5724 17.158 84.7264 17.296 84.8424 17.472C84.9624 17.648 85.0224 17.876 85.0224 18.156C85.0224 18.416 84.9564 18.668 84.8244 18.912C84.6964 19.156 84.5104 19.372 84.2664 19.56C84.0224 19.752 83.7224 19.904 83.3664 20.016C83.0144 20.132 82.6164 20.19 82.1724 20.19C81.7284 20.19 81.3404 20.146 81.0084 20.058C80.6764 19.97 80.4004 19.852 80.1804 19.704C79.9604 19.556 79.7944 19.384 79.6824 19.188C79.5744 18.996 79.5204 18.794 79.5204 18.582C79.5204 18.282 79.6144 18.028 79.8024 17.82C79.9904 17.612 80.2484 17.446 80.5764 17.322C80.3964 17.242 80.2524 17.136 80.1444 17.004C80.0404 16.868 79.9884 16.686 79.9884 16.458C79.9884 16.37 80.0044 16.28 80.0364 16.188C80.0684 16.092 80.1164 15.998 80.1804 15.906C80.2484 15.81 80.3304 15.72 80.4264 15.636C80.5224 15.552 80.6344 15.478 80.7624 15.414C80.4624 15.246 80.2284 15.024 80.0604 14.748C79.8924 14.468 79.8084 14.144 79.8084 13.776C79.8084 13.48 79.8644 13.212 79.9764 12.972C80.0924 12.728 80.2524 12.522 80.4564 12.354C80.6604 12.182 80.9024 12.05 81.1824 11.958C81.4664 11.866 81.7764 11.82 82.1124 11.82C82.3764 11.82 82.6224 11.85 82.8504 11.91C83.0784 11.966 83.2864 12.05 83.4744 12.162H85.1244ZM90.2031 14.298C90.2031 14.05 90.1671 13.824 90.0951 13.62C90.0271 13.412 89.9251 13.234 89.7891 13.086C89.6571 12.934 89.4951 12.818 89.3031 12.738C89.1111 12.654 88.8931 12.612 88.6491 12.612C88.1371 12.612 87.7311 12.762 87.4311 13.062C87.1351 13.358 86.9511 13.77 86.8791 14.298H90.2031ZM91.0671 17.148C90.9351 17.308 90.7771 17.448 90.5931 17.568C90.4091 17.684 90.2111 17.78 89.9991 17.856C89.7911 17.932 89.5751 17.988 89.3511 18.024C89.1271 18.064 88.9051 18.084 88.6851 18.084C88.2651 18.084 87.8771 18.014 87.5211 17.874C87.1691 17.73 86.8631 17.522 86.6031 17.25C86.3471 16.974 86.1471 16.634 86.0031 16.23C85.8591 15.826 85.7871 15.362 85.7871 14.838C85.7871 14.414 85.8511 14.018 85.9791 13.65C86.1111 13.282 86.2991 12.964 86.5431 12.696C86.7871 12.424 87.0851 12.212 87.4371 12.06C87.7891 11.904 88.1851 11.826 88.6251 11.826C88.9891 11.826 89.3251 11.888 89.6331 12.012C89.9451 12.132 90.2131 12.308 90.4371 12.54C90.6651 12.768 90.8431 13.052 90.9711 13.392C91.0991 13.728 91.1631 14.112 91.1631 14.544C91.1631 14.712 91.1451 14.824 91.1091 14.88C91.0731 14.936 91.0051 14.964 90.9051 14.964H86.8431C86.8551 15.348 86.9071 15.682 86.9991 15.966C87.0951 16.25 87.2271 16.488 87.3951 16.68C87.5631 16.868 87.7631 17.01 87.9951 17.106C88.2271 17.198 88.4871 17.244 88.7751 17.244C89.0431 17.244 89.2731 17.214 89.4651 17.154C89.6611 17.09 89.8291 17.022 89.9691 16.95C90.1091 16.878 90.2251 16.812 90.3171 16.752C90.4131 16.688 90.4951 16.656 90.5631 16.656C90.6511 16.656 90.7191 16.69 90.7671 16.758L91.0671 17.148Z" fill="white"/>
<g clip-path="url(#clip0_11_6)">
<path d="M11.115 0.052002C11.734 0.306515 11.9472 0.680731 11.815 1.24394C11.7318 1.59839 11.4798 1.77174 11.1482 1.8735C11.1482 2.66302 11.1482 3.44793 11.1482 4.27218C11.4118 4.27218 11.676 4.26775 11.9401 4.27292C13.3461 4.30042 14.4671 5.22649 14.7361 6.59485C14.7841 6.8394 14.7975 7.09409 14.798 7.34416C14.8027 9.52804 14.8008 11.7119 14.8008 13.8958C14.8008 13.9895 14.8008 14.0831 14.8008 14.1902C15.0472 14.1902 15.2774 14.1902 15.5379 14.1902C15.5379 13.983 15.536 13.7779 15.5382 13.5728C15.5459 12.8733 16.0667 12.298 16.7691 12.2822C17.8345 12.2583 18.9011 12.2583 19.9665 12.2817C20.677 12.2974 21.1867 12.8757 21.2106 13.626C21.2163 13.807 21.2114 13.9883 21.2114 14.2038C21.3121 14.2038 21.4032 14.2027 21.4943 14.204C22.3688 14.2162 23.2459 14.1909 24.1169 14.2525C24.9089 14.3086 25.5667 15.032 25.6432 15.8203C25.6599 15.9924 25.6693 16.166 25.6694 16.3389C25.671 18.9041 25.6668 21.4694 25.6726 24.0346C25.6744 24.8377 25.349 25.4417 24.6309 25.806C24.4282 25.9088 24.1884 25.9387 23.92 26.0007C20.2652 25.9998 16.6561 26.0002 13.0469 26.0013C12.9434 26.0013 12.8399 26.0081 12.7157 26.0076C11.7654 25.8402 11.2458 25.269 11.0629 24.3614C8.7228 24.3614 6.3833 24.3614 4.01712 24.3614C4.02982 25.0468 4.16477 25.7841 3.27599 26.052C3.16982 26.052 3.06366 26.052 2.92666 26.0354C2.42004 25.8419 2.22886 25.5726 2.22292 25.0611C2.2194 24.7581 2.22228 24.455 2.22228 24.1556C2.19529 24.1359 2.17614 24.1169 2.15321 24.1058C1.04492 23.5655 0.466384 22.6873 0.466021 21.4464C0.464625 16.6732 0.46479 11.8999 0.465952 7.12668C0.466307 5.66615 1.50356 4.47815 2.95009 4.30828C3.32346 4.26443 3.70636 4.30169 4.09599 4.30169C4.09599 3.46093 4.09599 2.66858 4.09599 1.87957C3.54452 1.66784 3.36294 1.38463 3.41566 0.828789C3.45357 0.429092 3.70331 0.159935 4.12062 0.0993898C6.35834 0.102903 8.57111 0.10355 10.7839 0.100748C10.8813 0.100624 10.9786 0.0689693 11.076 0.052002C11.076 0.052002 11.102 0.052002 11.115 0.052002ZM14.3881 9.38601C14.3881 8.67535 14.392 7.96466 14.3873 7.25402C14.3771 5.71605 13.338 4.68113 11.8054 4.68058C9.00606 4.67958 6.20663 4.69549 3.40749 4.67406C1.94863 4.66289 0.852141 5.84023 0.860343 7.20731C0.88868 11.9304 0.87084 16.6538 0.8728 21.3771C0.872879 21.567 0.874612 21.761 0.910981 21.9461C1.14652 23.1449 2.09546 23.9219 3.35109 23.9257C5.85571 23.9335 8.36037 23.9283 10.865 23.9273C10.93 23.9272 10.9949 23.9143 11.0677 23.9066C11.0677 23.7924 11.0677 23.6978 11.0677 23.6032C11.0677 21.1246 11.0703 18.6459 11.0653 16.1673C11.0644 15.7559 11.1643 15.3855 11.3823 15.0365C11.4545 14.9209 11.5046 14.7694 11.505 14.6342C11.5121 12.1122 11.51 9.59022 11.511 7.06824C11.5111 6.94726 11.5116 6.82463 11.5301 6.70559C11.6193 6.13119 12.2546 5.84843 12.7424 6.16239C13.0371 6.35213 13.1157 6.63572 13.1152 6.9679C13.1115 9.28188 13.1133 11.5959 13.1133 13.9098C13.1133 14.0023 13.1133 14.0947 13.1133 14.1852C13.5532 14.1852 13.9634 14.1852 14.3881 14.1852C14.3881 12.5902 14.3881 11.0141 14.3881 9.38601ZM22.4634 24.258C22.4634 21.0491 22.4634 17.8402 22.4634 14.6362C19.7169 14.6362 17.0093 14.6362 14.2987 14.6362C14.2987 18.2925 14.2987 21.9341 14.2987 25.5734C17.0272 25.5734 19.7405 25.5734 22.4627 25.5734C22.4627 25.1401 22.4627 24.725 22.4634 24.258ZM13.8705 25.2902C13.8705 21.7411 13.8705 18.192 13.8705 14.6347C13.4869 14.6347 13.1333 14.6217 12.7811 14.6377C12.2508 14.6617 11.8947 14.9887 11.6586 15.4149C11.5324 15.6428 11.4915 15.9424 11.4889 16.2104C11.4737 17.7524 11.4811 19.2947 11.4816 20.8368C11.4819 21.9544 11.4753 23.0721 11.4873 24.1896C11.4947 24.8735 11.9984 25.4958 12.6332 25.5719C13.0322 25.6197 13.4416 25.5808 13.8705 25.5808C13.8705 25.4918 13.8705 25.4161 13.8705 25.2902ZM23.8312 25.5918C24.636 25.5633 25.2609 24.9525 25.2637 24.1458C25.2727 21.4703 25.2717 18.7947 25.2645 16.1192C25.2626 15.4167 24.8121 14.8021 24.1765 14.6816C23.7593 14.6025 23.3226 14.6254 22.8909 14.6024C22.8909 18.2931 22.8909 21.9344 22.8909 25.5919C23.1964 25.5919 23.4891 25.5919 23.8312 25.5918ZM9.13606 3.56493C9.33864 3.79281 9.54122 4.02069 9.75331 4.25927C9.75331 3.45409 9.75331 2.66582 9.75331 1.88225C8.32393 1.88225 6.91369 1.88225 5.50142 1.88225C5.50142 2.67657 5.50142 3.46061 5.50142 4.2994C5.62964 4.13035 5.73192 4.01297 5.81459 3.88311C6.03088 3.54334 6.33287 3.40687 6.73503 3.4184C7.34966 3.43602 7.96536 3.41438 8.58017 3.4285C8.75541 3.43252 8.92913 3.50261 9.13606 3.56493ZM17.2402 14.2039C18.1121 14.2039 18.9839 14.2039 19.8544 14.2039C19.8691 13.6549 19.7344 13.5127 19.2304 13.5122C18.65 13.5117 18.0695 13.5113 17.4891 13.5123C16.9918 13.5132 16.8517 13.6759 16.9117 14.2039C17.0023 14.2039 17.0957 14.2039 17.2402 14.2039ZM10.6792 1.87543C10.5181 1.87543 10.3571 1.87543 10.1989 1.87543C10.1989 2.68646 10.1989 3.46957 10.1989 4.2553C10.378 4.2553 10.5447 4.2553 10.7176 4.2553C10.7176 3.46187 10.7176 2.68487 10.6792 1.87543ZM5.06569 3.40598C5.06569 2.89927 5.06569 2.39255 5.06569 1.88967C4.86575 1.88967 4.69787 1.88967 4.53802 1.88967C4.53802 2.6915 4.53802 3.47619 4.53802 4.25452C4.72206 4.25452 4.89072 4.25452 5.06563 4.25452C5.06563 3.97753 5.06563 3.71774 5.06569 3.40598ZM8.80789 4.27203C8.92418 4.27203 9.04048 4.27203 9.17932 4.27203C9.02783 3.96733 8.83656 3.82449 8.514 3.83465C7.91834 3.8534 7.32128 3.8531 6.7256 3.83476C6.40049 3.82475 6.2209 3.98193 6.06527 4.27203C6.98379 4.27203 7.8705 4.27203 8.80789 4.27203Z" fill="white"/>
<path d="M12.7644 26.052C12.74 26.052 12.735 26.0322 12.7357 26.022C12.8399 26.0081 12.9434 26.0013 13.047 26.0013C16.6561 26.0002 20.2652 25.9998 23.8985 26.0037C23.9227 26.0081 23.9196 26.0299 23.9198 26.041C20.2096 26.052 16.4992 26.052 12.7644 26.052Z" fill="#BFBFBF"/>
<path d="M4.12065 0.0993898C4.09571 0.0958765 4.09959 0.0733025 4.10381 0.0626523C6.41444 0.052002 8.72086 0.052002 11.0516 0.052002C10.9786 0.0689693 10.8813 0.100624 10.7839 0.100748C8.57114 0.10355 6.35837 0.102903 4.12065 0.0993898Z" fill="#3F3F3F"/>
<path d="M4.41806 16.64C4.41802 13.3554 4.41912 10.0969 4.41632 6.8383C4.41602 6.49005 4.55274 6.22054 4.8719 6.09378C5.19348 5.96605 5.51934 5.98878 5.79129 6.24432C5.98352 6.42495 6.02309 6.65848 6.02294 6.90906C6.0215 9.29232 6.02208 11.6756 6.02208 14.0588C6.02207 16.5288 6.02298 18.9987 6.02143 21.4686C6.02105 22.0837 5.618 22.4215 5.02706 22.3101C4.63956 22.2371 4.41956 21.9599 4.41884 21.5279C4.41668 20.2279 4.41806 18.928 4.41806 17.628C4.41806 17.3073 4.41806 16.9867 4.41806 16.64Z" fill="white"/>
<path d="M8.42509 11.388C8.42509 14.7741 8.42568 18.1343 8.42454 21.4944C8.42434 22.0875 8.01849 22.4198 7.43689 22.3101C7.11262 22.2489 6.90048 22.0396 6.83856 21.7104C6.82271 21.6261 6.82131 21.5383 6.8213 21.4521C6.82053 16.6024 6.82153 11.7527 6.81879 6.903C6.81858 6.53226 6.93151 6.22479 7.29169 6.08894C7.61434 5.96726 7.96465 5.97019 8.19726 6.26111C8.32545 6.42143 8.41298 6.66192 8.41545 6.86751C8.43342 8.3655 8.4251 9.8638 8.42509 11.388Z" fill="white"/>
<path d="M9.10437 18.304C9.10436 14.4762 9.1054 10.6743 9.1026 6.87249C9.10234 6.51903 9.22312 6.23131 9.55388 6.09666C9.87333 5.96662 10.2263 5.96285 10.4641 6.24626C10.6005 6.40888 10.6954 6.65851 10.6996 6.87115C10.7222 8.00518 10.7102 9.13991 10.7102 10.2744C10.7102 14.007 10.7106 17.7395 10.7098 21.4721C10.7097 22.0836 10.3031 22.4238 9.71547 22.3096C9.33096 22.2348 9.10681 21.9544 9.10547 21.5256C9.10215 20.4604 9.10438 19.3952 9.10437 18.304Z" fill="white"/>
<path d="M2.01166 18.148C2.01165 14.3788 2.01358 10.6356 2.00855 6.8924C2.00806 6.52729 2.12594 6.2476 2.46166 6.08882C2.74926 5.9528 3.16865 6.01777 3.37634 6.25041C3.47947 6.36593 3.53342 6.52986 3.59171 6.67889C3.61855 6.74751 3.60528 6.83295 3.60529 6.91077C3.60575 11.7544 3.60596 16.598 3.60537 21.4416C3.60529 22.0891 3.22308 22.4236 2.61868 22.3099C2.22886 22.2366 2.01514 21.9699 2.0131 21.5273C2.00857 20.5482 2.01167 19.569 2.01166 18.5899C2.01166 18.4513 2.01166 18.3126 2.01166 18.148Z" fill="white"/>
</g>
<defs>
<clipPath id="clip0_11_6">
<rect width="26" height="26" fill="white"/>
</clipPath>
</defs>
</svg>
